<svg xmlns="http://www.w3.org/2000/svg" viewBox="0 0 64 64" role="img" aria-labelledby="logoTitle logoDesc">
  <title id="logoTitle">JoboliNCa logomark</title>
  <desc id="logoDesc">Minimal interlocking loops forming the JoboliNCa brand mark.</desc>
  <defs>
    <linearGradient id="loopA" x1="0%" y1="0%" x2="100%" y2="90%">
      <stop offset="0%" stop-color="#0f172a" />
      <stop offset="100%" stop-color="#1d4ed8" />
    </linearGradient>
    <linearGradient id="loopB" x1="15%" y1="10%" x2="85%" y2="95%">
      <stop offset="0%" stop-color="#1d4ed8" />
      <stop offset="100%" stop-color="#3b82f6" />
    </linearGradient>
    <linearGradient id="loopC" x1="10%" y1="0%" x2="90%" y2="100%">
      <stop offset="0%" stop-color="#2563eb" />
      <stop offset="100%" stop-color="#60a5fa" />
    </linearGradient>
  </defs>
  <g fill="none" stroke-linecap="round" stroke-linejoin="round">
    <path d="M32 9.5c12.4 0 22.5 9.9 22.5 22.5 0 6-2.3 11.3-6.1 15.4" stroke="url(#loopA)" stroke-width="6" />
    <path d="M46.8 47.4C41.2 52.9 34 55.6 27.1 54.3 21 53.2 16 49.8 12.7 45" stroke="url(#loopB)" stroke-width="6" />
    <path d="M18 45.8C10.4 38.2 8.8 26.1 14.6 17.3 18.3 11.6 24 8.2 30.3 7.4" stroke="url(#loopC)" stroke-width="6" />
  </g>
  <circle cx="32" cy="32" r="8.5" fill="#0f172a" opacity="0.28" />
  <circle cx="32" cy="32" r="5.5" fill="#e2e8f0" />
</svg>
